<svg id="visual" viewBox="0 0 900 600" width="900" height="600" xmlns="http://www.w3.org/2000/svg" xmlns:xlink="http://www.w3.org/1999/xlink" version="1.1"><rect x="0" y="0" width="900" height="600" fill="#FAFCFC"></rect><defs><linearGradient id="grad1_0" x1="33.3%" y1="100%" x2="100%" y2="0%"><stop offset="20%" stop-color="#529bb1" stop-opacity="1"></stop><stop offset="80%" stop-color="#529bb1" stop-opacity="1"></stop></linearGradient></defs><defs><linearGradient id="grad1_1" x1="33.3%" y1="100%" x2="100%" y2="0%"><stop offset="20%" stop-color="#529bb1" stop-opacity="1"></stop><stop offset="80%" stop-color="#6ca9ba" stop-opacity="1"></stop></linearGradient></defs><defs><linearGradient id="grad1_2" x1="33.3%" y1="100%" x2="100%" y2="0%"><stop offset="20%" stop-color="#84b7c3" stop-opacity="1"></stop><stop offset="80%" stop-color="#6ca9ba" stop-opacity="1"></stop></linearGradient></defs><defs><linearGradient id="grad1_3" x1="33.3%" y1="100%" x2="100%" y2="0%"><stop offset="20%" stop-color="#84b7c3" stop-opacity="1"></stop><stop offset="80%" stop-color="#9cc5cd" stop-opacity="1"></stop></linearGradient></defs><defs><linearGradient id="grad1_4" x1="33.3%" y1="100%" x2="100%" y2="0%"><stop offset="20%" stop-color="#b3d2d7" stop-opacity="1"></stop><stop offset="80%" stop-color="#9cc5cd" stop-opacity="1"></stop></linearGradient></defs><defs><linearGradient id="grad1_5" x1="33.3%" y1="100%" x2="100%" y2="0%"><stop offset="20%" stop-color="#b3d2d7" stop-opacity="1"></stop><stop offset="80%" stop-color="#cbe0e2" stop-opacity="1"></stop></linearGradient></defs><defs><linearGradient id="grad1_6" x1="33.3%" y1="100%" x2="100%" y2="0%"><stop offset="20%" stop-color="#e2eeef" stop-opacity="1"></stop><stop offset="80%" stop-color="#cbe0e2" stop-opacity="1"></stop></linearGradient></defs><defs><linearGradient id="grad1_7" x1="33.3%" y1="100%" x2="100%" y2="0%"><stop offset="20%" stop-color="#e2eeef" stop-opacity="1"></stop><stop offset="80%" stop-color="#fafcfc" stop-opacity="1"></stop></linearGradient></defs><defs><linearGradient id="grad2_0" x1="0%" y1="100%" x2="66.7%" y2="0%"><stop offset="20%" stop-color="#529bb1" stop-opacity="1"></stop><stop offset="80%" stop-color="#529bb1" stop-opacity="1"></stop></linearGradient></defs><defs><linearGradient id="grad2_1" x1="0%" y1="100%" x2="66.7%" y2="0%"><stop offset="20%" stop-color="#6ca9ba" stop-opacity="1"></stop><stop offset="80%" stop-color="#529bb1" stop-opacity="1"></stop></linearGradient></defs><defs><linearGradient id="grad2_2" x1="0%" y1="100%" x2="66.7%" y2="0%"><stop offset="20%" stop-color="#6ca9ba" stop-opacity="1"></stop><stop offset="80%" stop-color="#84b7c3" stop-opacity="1"></stop></linearGradient></defs><defs><linearGradient id="grad2_3" x1="0%" y1="100%" x2="66.7%" y2="0%"><stop offset="20%" stop-color="#9cc5cd" stop-opacity="1"></stop><stop offset="80%" stop-color="#84b7c3" stop-opacity="1"></stop></linearGradient></defs><defs><linearGradient id="grad2_4" x1="0%" y1="100%" x2="66.7%" y2="0%"><stop offset="20%" stop-color="#9cc5cd" stop-opacity="1"></stop><stop offset="80%" stop-color="#b3d2d7" stop-opacity="1"></stop></linearGradient></defs><defs><linearGradient id="grad2_5" x1="0%" y1="100%" x2="66.7%" y2="0%"><stop offset="20%" stop-color="#cbe0e2" stop-opacity="1"></stop><stop offset="80%" stop-color="#b3d2d7" stop-opacity="1"></stop></linearGradient></defs><defs><linearGradient id="grad2_6" x1="0%" y1="100%" x2="66.7%" y2="0%"><stop offset="20%" stop-color="#cbe0e2" stop-opacity="1"></stop><stop offset="80%" stop-color="#e2eeef" stop-opacity="1"></stop></linearGradient></defs><defs><linearGradient id="grad2_7" x1="0%" y1="100%" x2="66.7%" y2="0%"><stop offset="20%" stop-color="#fafcfc" stop-opacity="1"></stop><stop offset="80%" stop-color="#e2eeef" stop-opacity="1"></stop></linearGradient></defs><g transform="translate(900, 600)"><path d="M-486.7 0C-481 -70.2 -475.3 -140.4 -434.2 -179.9C-393.2 -219.3 -316.8 -227.9 -275.1 -275.1C-233.4 -322.2 -226.3 -408 -186.3 -449.7C-146.2 -491.4 -73.1 -489.1 0 -486.7L0 0Z" fill="#eef5f5"></path><path d="M-425.9 0C-420.9 -61.4 -415.9 -122.9 -379.9 -157.4C-344 -191.9 -277.2 -199.4 -240.7 -240.7C-204.2 -282 -198 -357 -163 -393.5C-127.9 -430 -64 -427.9 0 -425.9L0 0Z" fill="#d7e7e9"></path><path d="M-365.1 0C-360.8 -52.7 -356.5 -105.3 -325.7 -134.9C-294.9 -164.5 -237.6 -170.9 -206.3 -206.3C-175 -241.7 -169.8 -306 -139.7 -337.3C-109.7 -368.6 -54.8 -366.8 0 -365.1L0 0Z" fill="#bfd9dd"></path><path d="M-304.2 0C-300.6 -43.9 -297.1 -87.8 -271.4 -112.4C-245.7 -137 -198 -142.4 -171.9 -171.9C-145.8 -201.4 -141.5 -255 -116.4 -281.1C-91.4 -307.1 -45.7 -305.7 0 -304.2L0 0Z" fill="#a7ccd2"></path><path d="M-243.4 0C-240.5 -35.1 -237.6 -70.2 -217.1 -89.9C-196.6 -109.6 -158.4 -113.9 -137.5 -137.5C-116.7 -161.1 -113.2 -204 -93.1 -224.8C-73.1 -245.7 -36.6 -244.5 0 -243.4L0 0Z" fill="#90bec8"></path><path d="M-182.5 0C-180.4 -26.3 -178.2 -52.7 -162.8 -67.4C-147.4 -82.2 -118.8 -85.5 -103.1 -103.1C-87.5 -120.8 -84.9 -153 -69.9 -168.6C-54.8 -184.3 -27.4 -183.4 0 -182.5L0 0Z" fill="#78b0be"></path><path d="M-121.7 0C-120.3 -17.6 -118.8 -35.1 -108.6 -45C-98.3 -54.8 -79.2 -57 -68.8 -68.8C-58.3 -80.6 -56.6 -102 -46.6 -112.4C-36.6 -122.9 -18.3 -122.3 0 -121.7L0 0Z" fill="#5fa2b5"></path><path d="M-60.8 0C-60.1 -8.8 -59.4 -17.6 -54.3 -22.5C-49.1 -27.4 -39.6 -28.5 -34.4 -34.4C-29.2 -40.3 -28.3 -51 -23.3 -56.2C-18.3 -61.4 -9.1 -61.1 0 -60.8L0 0Z" fill="#529bb1"></path></g><g transform="translate(0, 0)"><path d="M486.7 0C487.7 71 488.7 142 449.7 186.3C410.7 230.6 331.7 248.3 280.7 280.7C229.7 313.2 206.7 360.5 164.6 397.3C122.4 434.1 61.2 460.4 0 486.7L0 0Z" fill="#eef5f5"></path><path d="M425.9 0C426.8 62.1 427.6 124.2 393.5 163C359.4 201.8 290.3 217.2 245.6 245.6C201 274 180.8 315.4 144 347.6C107.1 379.8 53.6 402.9 0 425.9L0 0Z" fill="#d7e7e9"></path><path d="M365.1 0C365.8 53.2 366.5 106.5 337.3 139.7C308 172.9 248.8 186.2 210.5 210.5C172.3 234.9 155 270.3 123.4 298C91.8 325.6 45.9 345.3 0 365.1L0 0Z" fill="#bfd9dd"></path><path d="M304.2 0C304.8 44.4 305.4 88.7 281.1 116.4C256.7 144.1 207.3 155.2 175.5 175.5C143.6 195.7 129.2 225.3 102.8 248.3C76.5 271.3 38.3 287.8 0 304.2L0 0Z" fill="#a7ccd2"></path><path d="M243.4 0C243.9 35.5 244.3 71 224.8 93.1C205.3 115.3 165.9 124.1 140.4 140.4C114.9 156.6 103.3 180.2 82.3 198.6C61.2 217 30.6 230.2 0 243.4L0 0Z" fill="#90bec8"></path><path d="M182.5 0C182.9 26.6 183.3 53.2 168.6 69.9C154 86.5 124.4 93.1 105.3 105.3C86.1 117.4 77.5 135.2 61.7 149C45.9 162.8 23 172.7 0 182.5L0 0Z" fill="#78b0be"></path><path d="M121.7 0C121.9 17.7 122.2 35.5 112.4 46.6C102.7 57.6 82.9 62.1 70.2 70.2C57.4 78.3 51.7 90.1 41.1 99.3C30.6 108.5 15.3 115.1 0 121.7L0 0Z" fill="#5fa2b5"></path><path d="M60.8 0C61 8.9 61.1 17.7 56.2 23.3C51.3 28.8 41.5 31 35.1 35.1C28.7 39.1 25.8 45.1 20.6 49.7C15.3 54.3 7.7 57.6 0 60.8L0 0Z" fill="#529bb1"></path></g></svg>